<?xml version="1.0" standalone="no"?>
<!DOCTYPE svg PUBLIC "-//W3C//DTD SVG 20010904//EN"
 "http://www.w3.org/TR/2001/REC-SVG-20010904/DTD/svg10.dtd">
<svg version="1.0" xmlns="http://www.w3.org/2000/svg"
 width="256.000000pt" height="256.000000pt" viewBox="0 0 256.000000 256.000000"
 preserveAspectRatio="xMidYMid meet">

<g transform="translate(0.000000,256.000000) scale(0.100000,-0.100000)"
fill="#ff5757" stroke="none">
<path d="M0 1280 l0 -1280 1280 0 1280 0 0 1280 0 1280 -1280 0 -1280 0 0
-1280z m1579 914 c29 -36 26 -49 -13 -73 -37 -23 -56 -27 -56 -10 0 6 -9 24
-20 39 l-20 28 32 20 c44 27 53 27 77 -4z m61 11 c35 -18 36 -21 10 -35 -16
-9 -22 -6 -35 20 -18 34 -15 36 25 15z m-170 -77 c27 -45 26 -50 -19 -75 l-39
-23 -25 43 -25 42 36 22 c20 13 40 23 45 23 4 0 16 -15 27 -32z m222 -457 c3
-559 -3 -523 96 -571 l51 -26 -333 -192 c-295 -171 -337 -192 -377 -192 -54 0
-102 27 -126 72 -16 30 -18 73 -21 515 l-3 483 33 20 c53 32 55 29 32 -62 -8
-34 14 -38 40 -9 15 17 16 27 8 65 -9 45 -9 46 25 66 19 11 38 20 44 20 13 0
11 -34 -3 -65 -17 -37 3 -56 32 -30 18 16 20 26 15 70 -7 52 -7 52 30 73 20
12 38 22 41 22 8 0 4 -48 -6 -75 -8 -20 -7 -27 5 -31 31 -12 46 16 39 72 -6
52 -6 53 27 73 19 12 37 21 42 21 10 0 9 -48 -2 -69 -6 -10 -6 -23 -1 -31 7
-12 12 -11 30 5 18 16 20 26 15 70 l-7 50 42 24 43 24 -7 -57 c-6 -47 -5 -56
8 -56 25 0 49 45 37 69 -19 36 -13 58 25 81 19 12 37 21 39 19 7 -9 8 -36 0
-62 -11 -41 7 -55 35 -27 15 15 20 28 15 43 -16 53 -17 69 -4 78 38 24 38 24
41 -480z m-332 387 c11 -18 20 -36 20 -40 0 -8 -80 -52 -84 -46 -1 2 -12 20
-24 41 l-22 38 33 19 c44 27 54 25 77 -12z m-111 -62 c12 -18 21 -36 21 -39 0
-7 -65 -47 -76 -47 -9 0 -48 58 -49 73 0 9 55 45 72 46 6 1 21 -14 32 -33z
m-521 -32 c32 -9 27 -31 -8 -39 -36 -8 -70 2 -70 20 0 22 35 30 78 19z m418
-47 c9 -16 14 -30 12 -31 -22 -16 -80 -47 -82 -45 -14 19 -47 81 -45 83 70 50
87 49 115 -7z m-398 -72 l-3 -60 -38 -3 c-53 -5 -67 10 -67 72 l0 52 55 0 56
0 -3 -61z m274 33 c30 -48 29 -57 -10 -77 l-37 -19 -47 24 c-27 13 -48 26 -48
28 0 7 104 66 116 66 7 0 18 -10 26 -22z m-103 -92 l48 -25 0 -645 c1 -356 -3
-646 -8 -646 -5 0 -28 11 -51 24 l-43 24 -3 646 c-1 355 0 646 3 646 3 0 27
-11 54 -24z m-183 -45 c-9 -10 -13 -21 -9 -24 3 -4 1 -7 -5 -7 -7 0 -13 10
-13 23 -1 20 -2 20 -6 2 -3 -11 -10 -27 -16 -35 -9 -12 -9 -13 3 -3 11 10 16
9 26 -5 10 -14 10 -20 -3 -34 -8 -9 -13 -25 -10 -35 4 -14 5 -14 6 5 0 12 6
22 11 22 6 0 10 -28 10 -65 0 -45 -4 -65 -12 -65 -10 0 -10 -2 0 -8 9 -6 12
-35 11 -98 0 -49 1 -96 3 -104 2 -10 -4 -15 -19 -14 -12 0 -19 -4 -16 -9 3 -5
16 -6 29 -3 21 6 24 3 24 -19 0 -14 -5 -25 -12 -25 -9 0 -9 -3 0 -12 17 -17
15 -28 -5 -29 -17 -1 -17 -2 0 -6 19 -5 25 -53 6 -53 -8 0 -8 -4 0 -14 15 -17
6 -187 -10 -219 -11 -20 -11 -21 4 -8 15 12 17 11 17 -8 0 -12 -4 -20 -10 -16
-5 3 -7 -9 -4 -31 10 -85 12 -208 3 -225 -6 -13 -6 -19 1 -19 5 0 10 -11 10
-25 0 -14 -5 -25 -11 -25 -8 0 -8 -5 1 -15 10 -12 9 -16 -4 -21 -9 -3 -23 -3
-32 0 -8 3 -12 2 -9 -4 3 -6 17 -10 31 -10 17 0 24 -6 24 -19 0 -25 -18 -37
-59 -36 -30 0 -35 4 -38 28 -4 33 14 36 27 4 7 -17 9 -18 9 -5 1 10 -8 23 -19
30 -11 7 -20 24 -20 37 0 18 4 22 20 18 11 -3 18 -1 14 4 -3 5 -12 9 -20 9
-20 0 -18 50 4 66 16 13 16 14 0 8 -16 -5 -18 0 -18 41 0 34 5 52 18 61 16 13
16 14 0 8 -15 -5 -18 0 -18 35 0 26 5 41 13 41 9 0 9 2 0 8 -19 12 -16 412 2
412 8 0 16 -6 18 -12 4 -10 6 -10 6 0 1 8 -8 16 -19 19 -25 7 -27 48 -2 63 16
11 16 11 0 6 -15 -5 -18 1 -18 41 0 30 6 54 18 67 16 20 16 20 0 7 -17 -12
-18 -10 -18 33 0 33 4 46 14 46 8 0 17 4 20 9 4 5 -3 7 -14 4 -19 -5 -20 -1
-19 109 l1 115 50 1 c47 1 49 0 34 -17z m952 -828 l-3 -47 -340 -198 c-187
-109 -346 -198 -352 -198 -10 0 -13 35 -13 143 l0 142 23 -27 c31 -37 78 -58
129 -58 38 0 77 19 293 144 138 80 254 145 258 145 4 1 7 -20 5 -46z m-951
-526 c-3 -18 -13 -51 -22 -73 l-17 -39 -14 32 c-8 18 -18 50 -23 73 l-9 40 45
0 46 0 -6 -33z"/>
<path d="M692 1490 c0 -14 2 -19 5 -12 2 6 2 18 0 25 -3 6 -5 1 -5 -13z"/>
<path d="M660 1385 c0 -5 5 -17 10 -25 5 -8 10 -10 10 -5 0 6 -5 17 -10 25 -5
8 -10 11 -10 5z"/>
<path d="M701 1324 c0 -11 3 -14 6 -6 3 7 2 16 -1 19 -3 4 -6 -2 -5 -13z"/>
<path d="M677 1169 c4 -13 8 -18 11 -10 2 7 -1 18 -6 23 -8 8 -9 4 -5 -13z"/>
<path d="M670 1086 c0 -5 8 -15 18 -22 15 -11 15 -16 4 -34 -7 -12 -12 -24 -9
-26 2 -2 10 7 17 21 12 23 12 28 -8 48 -12 12 -22 18 -22 13z"/>
<path d="M701 950 c0 -15 -4 -30 -8 -36 -5 -5 -2 -4 5 2 8 6 12 22 9 35 -4 24
-4 24 -6 -1z"/>
<path d="M694 815 c-3 -8 -4 -20 -1 -27 3 -7 6 -3 6 9 1 12 7 24 14 26 9 4 9
6 -1 6 -7 1 -15 -6 -18 -14z"/>
<path d="M703 655 c-3 -9 -3 -19 1 -22 3 -4 6 1 6 10 0 8 6 18 13 20 9 4 9 6
-1 6 -7 1 -15 -6 -19 -14z"/>
</g>
</svg>
